<svg xmlns="http://www.w3.org/2000/svg" class="svglite" width="960" height="768" viewBox="0 0 720 576"><defs><style>.svglite polyline,.svglite rect{fill:none;stroke:#000;stroke-linecap:round;stroke-linejoin:round;stroke-miterlimit:10}.svglite text{white-space:pre}</style></defs><rect width="100%" height="100%" fill="#fdf6e3"/><defs><clipPath id="cpMC4wMHw3MjAuMDB8MC4wMHw1NzYuMDA="><path d="M0 0h720v576H0z"/></clipPath></defs><g clip-path="url(#cpMC4wMHw3MjAuMDB8MC4wMHw1NzYuMDA=)"><path stroke-width="1.16" fill="#fdf6e3" d="M0 0h720v576H0z"/></g><defs><clipPath id="cpNDEuNDd8NjM2LjczfDI1LjI4fDQ5OS43Nw=="><path d="M41.47 25.28h595.26v474.49H41.47z"/></clipPath></defs><g clip-path="url(#cpNDEuNDd8NjM2LjczfDI1LjI4fDQ5OS43Nw==)"><path stroke-width="1.16" fill="#eee8d5" d="M41.47 25.28h595.26v474.49H41.47z"/><path stroke-width=".53" stroke="#fdf6e3" d="M41.47 425.22h595.26M41.47 319.25h595.26M41.47 213.28h595.26M41.47 107.31h595.26"/><path stroke-width="1.16" stroke="#fdf6e3" d="M41.47 478.21h595.26M41.47 372.24h595.26M41.47 266.27h595.26M41.47 160.3h595.26M41.47 54.33h595.26M66.62 499.77V25.28M108.54 499.77V25.28M150.46 499.77V25.28M192.38 499.77V25.28M234.3 499.77V25.28M276.22 499.77V25.28M318.14 499.77V25.28M360.06 499.77V25.28M401.98 499.77V25.28M443.9 499.77V25.28M485.82 499.77V25.28M527.74 499.77V25.28M569.66 499.77V25.28M611.58 499.77V25.28"/><path stroke-width="1.07" fill="#4682b4" d="M47.76 391.63h37.73v86.58H47.76z"/><path stroke-width="1.07" fill="#ee6a50" d="M89.68 423.1h37.73v55.1H89.68zM131.6 152.1h37.73v326.1H131.6z"/><path stroke-width="1.07" fill="#4682b4" d="M173.52 424.22h37.73v53.98h-37.73zM215.44 145.54h37.73V478.2h-37.73zM257.36 405.62h37.73v72.59h-37.73z"/><path stroke-width="1.07" fill="#ee6a50" d="M299.28 443.91h37.73v34.29h-37.73zM341.2 383.45h37.73v94.76H341.2zM383.12 423.48h37.73v54.72h-37.73z"/><path stroke-width="1.07" fill="#4682b4" d="M425.04 369.08h37.73v109.13h-37.73zM466.96 422.38h37.73v55.82h-37.73zM508.88 46.85h37.73v431.36h-37.73zM550.8 397.92h37.73v80.28H550.8zM592.72 396.04h37.73v82.17h-37.73z"/></g><g clip-path="url(#cpMC4wMHw3MjAuMDB8MC4wMHw1NzYuMDA=)"><path stroke-width="1.16" d="M41.47 499.77V25.28"/><text x="36.09" y="481.64" text-anchor="end" textLength="5.34" lengthAdjust="spacingAndGlyphs" font-size="9.6" fill="#93a1a1" font-family="Arial">0</text><text x="36.09" y="375.67" text-anchor="end" textLength="10.67" lengthAdjust="spacingAndGlyphs" font-size="9.6" fill="#93a1a1" font-family="Arial">50</text><text x="36.09" y="269.7" text-anchor="end" textLength="16.01" lengthAdjust="spacingAndGlyphs" font-size="9.6" fill="#93a1a1" font-family="Arial">100</text><text x="36.09" y="163.73" text-anchor="end" textLength="16.01" lengthAdjust="spacingAndGlyphs" font-size="9.6" fill="#93a1a1" font-family="Arial">150</text><text x="36.09" y="57.76" text-anchor="end" textLength="16.01" lengthAdjust="spacingAndGlyphs" font-size="9.6" fill="#93a1a1" font-family="Arial">200</text><path stroke-width="1.16" stroke="#93a1a1" d="M38.48 478.21h2.99M38.48 372.24h2.99M38.48 266.27h2.99M38.48 160.3h2.99M38.48 54.33h2.99"/><path stroke-width="1.16" d="M41.47 499.77h595.26"/><path stroke-width="1.16" stroke="#93a1a1" d="M66.62 502.76v-2.99M108.54 502.76v-2.99M150.46 502.76v-2.99M192.38 502.76v-2.99M234.3 502.76v-2.99M276.22 502.76v-2.99M318.14 502.76v-2.99M360.06 502.76v-2.99M401.98 502.76v-2.99M443.9 502.76v-2.99M485.82 502.76v-2.99M527.74 502.76v-2.99M569.66 502.76v-2.99M611.58 502.76v-2.99"/><text transform="rotate(-45 651.377 168.721)" text-anchor="end" textLength="34.11" lengthAdjust="spacingAndGlyphs" font-size="9.6" fill="#93a1a1" font-family="Arial">Alacritty</text><text transform="rotate(-45 672.337 118.12)" text-anchor="end" textLength="62.91" lengthAdjust="spacingAndGlyphs" font-size="9.6" fill="#93a1a1" font-family="Arial">cool-retro-term</text><text transform="rotate(-45 693.297 67.517)" text-anchor="end" textLength="21.33" lengthAdjust="spacingAndGlyphs" font-size="9.6" fill="#93a1a1" font-family="Arial">Fleet</text><text transform="rotate(-45 714.257 16.915)" text-anchor="end" textLength="16" lengthAdjust="spacingAndGlyphs" font-size="9.6" fill="#93a1a1" font-family="Arial">foot</text><text transform="rotate(-45 735.217 -33.687)" text-anchor="end" textLength="52.23" lengthAdjust="spacingAndGlyphs" font-size="9.6" fill="#93a1a1" font-family="Arial">IntelliJ IDEA</text><text transform="rotate(-45 756.177 -84.289)" text-anchor="end" textLength="34.66" lengthAdjust="spacingAndGlyphs" font-size="9.6" fill="#93a1a1" font-family="Arial">Konsole</text><text transform="rotate(-45 777.137 -134.89)" text-anchor="end" textLength="19.73" lengthAdjust="spacingAndGlyphs" font-size="9.6" fill="#93a1a1" font-family="Arial">linux</text><text transform="rotate(-45 798.097 -185.492)" text-anchor="end" textLength="55.45" lengthAdjust="spacingAndGlyphs" font-size="9.6" fill="#93a1a1" font-family="Arial">QMLKonsole</text><text transform="rotate(-45 819.057 -236.094)" text-anchor="end" textLength="43.71" lengthAdjust="spacingAndGlyphs" font-size="9.6" fill="#93a1a1" font-family="Arial">QTerminal</text><text transform="rotate(-45 840.017 -286.696)" text-anchor="end" textLength="14.39" lengthAdjust="spacingAndGlyphs" font-size="9.6" fill="#93a1a1" font-family="Arial">Rio</text><text transform="rotate(-45 860.977 -337.298)" text-anchor="end" textLength="52.25" lengthAdjust="spacingAndGlyphs" font-size="9.6" fill="#93a1a1" font-family="Arial">rxvt-unicode</text><text transform="rotate(-45 881.937 -387.9)" text-anchor="end" textLength="54.92" lengthAdjust="spacingAndGlyphs" font-size="9.6" fill="#93a1a1" font-family="Arial">Terminal.app</text><text transform="rotate(-45 902.897 -438.502)" text-anchor="end" textLength="51.72" lengthAdjust="spacingAndGlyphs" font-size="9.6" fill="#93a1a1" font-family="Arial">Terminology</text><text transform="rotate(-45 923.857 -489.104)" text-anchor="end" textLength="23.98" lengthAdjust="spacingAndGlyphs" font-size="9.6" fill="#93a1a1" font-family="Arial">xterm</text><text x="339.1" y="567.5" text-anchor="middle" textLength="26.67" lengthAdjust="spacingAndGlyphs" font-size="12" fill="#657b83" font-family="Arial">Term</text><text transform="rotate(-90 138.55 123.98)" text-anchor="middle" textLength="108.98" lengthAdjust="spacingAndGlyphs" font-size="12" fill="#657b83" font-family="Arial">Median duration [μs]</text><path stroke-width="1.16" fill="#fdf6e3" d="M648.69 230.72h65.34v63.61h-65.34z"/><text x="654.66" y="246.56" textLength="53.38" lengthAdjust="spacingAndGlyphs" font-size="12" fill="#657b83" font-family="Arial">supported</text><path stroke-width="1.16" fill="#eee8d5" d="M654.66 253.79h17.28v17.28h-17.28z"/><path stroke-width="1.07" fill="#ee6a50" d="M655.37 254.5h15.86v15.86h-15.86z"/><path stroke-width="1.16" fill="#eee8d5" d="M654.66 271.07h17.28v17.28h-17.28z"/><path stroke-width="1.07" fill="#4682b4" d="M655.37 271.78h15.86v15.86h-15.86z"/><text x="677.92" y="265.87" textLength="23.46" lengthAdjust="spacingAndGlyphs" font-size="9.6" fill="#93a1a1" font-family="Arial">False</text><text x="677.92" y="283.15" textLength="19.38" lengthAdjust="spacingAndGlyphs" font-size="9.6" fill="#93a1a1" font-family="Arial">True</text><text x="41.47" y="16.28" textLength="293.59" lengthAdjust="spacingAndGlyphs" font-size="14.4" fill="#657b83" font-family="Arial">Median duration per terminal for fast terminals</text></g></svg>