<svg xmlns="http://www.w3.org/2000/svg" width="960" height="768" class="svglite" viewBox="0 0 720 576"><defs><style>.svglite polyline,.svglite rect{fill:none;stroke:#000;stroke-linecap:round;stroke-linejoin:round;stroke-miterlimit:10}.svglite text{white-space:pre}</style></defs><rect width="100%" height="100%" style="stroke:none;fill:#002b36"/><defs><clipPath id="cpMC4wMHw3MjAuMDB8MC4wMHw1NzYuMDA="><path d="M0 0h720v576H0z"/></clipPath></defs><g clip-path="url(#cpMC4wMHw3MjAuMDB8MC4wMHw1NzYuMDA=)"><path d="M0 0h720v576H0z" style="stroke-width:1.16;stroke:none;fill:#002b36"/></g><defs><clipPath id="cpNTMuMjN8NjMxLjUwfDI1LjY5fDUxMy42Ng=="><path d="M53.23 25.69H631.5v487.97H53.23z"/></clipPath></defs><g clip-path="url(#cpNTMuMjN8NjMxLjUwfDI1LjY5fDUxMy42Ng==)"><path d="M53.23 25.69H631.5v487.97H53.23z" style="stroke-width:1.16;stroke:none;fill:#073642"/><path d="M53.23 406.52H631.5M53.23 236.59H631.5M53.23 66.65H631.5" style="stroke-width:.53;stroke:#002b36;stroke-linecap:butt"/><path d="M53.23 491.48H631.5M53.23 321.55H631.5M53.23 151.62H631.5M109.19 513.66V25.69M202.46 513.66V25.69M295.73 513.66V25.69M389 513.66V25.69M482.27 513.66V25.69M575.54 513.66V25.69" style="stroke-width:1.16;stroke:#002b36;stroke-linecap:butt"/><path d="M67.22 165.33h83.94v326.15H67.22zM160.49 192.09h83.94v299.39h-83.94zM253.76 438.53h83.94v52.95h-83.94zM347.03 47.87h83.94v443.61h-83.94zM440.29 234.03h83.94v257.45h-83.94zM533.56 438.14h83.94v53.34h-83.94z" style="stroke-width:1.07;stroke:none;stroke-linecap:butt;stroke-linejoin:miter;fill:#4682b4"/></g><g clip-path="url(#cpMC4wMHw3MjAuMDB8MC4wMHw1NzYuMDA=)"><path d="M53.23 513.66V25.69" style="stroke-width:1.16;stroke:none;stroke-linecap:butt"/><text x="47.85" y="494.91" lengthAdjust="spacingAndGlyphs" style="font-size:9.6px;fill:#586e75;font-family:&quot;Arial&quot;" text-anchor="end" textLength="5.49">0</text><text x="47.85" y="324.98" lengthAdjust="spacingAndGlyphs" style="font-size:9.6px;fill:#586e75;font-family:&quot;Arial&quot;" text-anchor="end" textLength="27.43">10000</text><text x="47.85" y="155.05" lengthAdjust="spacingAndGlyphs" style="font-size:9.6px;fill:#586e75;font-family:&quot;Arial&quot;" text-anchor="end" textLength="27.43">20000</text><path d="M50.24 491.48h2.99M50.24 321.55h2.99M50.24 151.62h2.99" style="stroke-width:1.16;stroke:#586e75;stroke-linecap:butt"/><path d="M53.23 513.66H631.5" style="stroke-width:1.16;stroke:none;stroke-linecap:butt"/><path d="M109.19 516.65v-2.99M202.46 516.65v-2.99M295.73 516.65v-2.99M389 516.65v-2.99M482.27 516.65v-2.99M575.54 516.65v-2.99" style="stroke-width:1.16;stroke:#586e75;stroke-linecap:butt"/><text lengthAdjust="spacingAndGlyphs" style="font-size:9.6px;fill:#586e75;font-family:&quot;Arial&quot;" text-anchor="end" textLength="27.27" transform="rotate(-45 689.406 124.299)">Hyper</text><text lengthAdjust="spacingAndGlyphs" style="font-size:9.6px;fill:#586e75;font-family:&quot;Arial&quot;" text-anchor="end" textLength="31.64" transform="rotate(-45 736.041 11.712)">iTerm2</text><text lengthAdjust="spacingAndGlyphs" style="font-size:9.6px;fill:#586e75;font-family:&quot;Arial&quot;" text-anchor="end" textLength="19.43" transform="rotate(-45 782.676 -100.875)">kitty</text><text lengthAdjust="spacingAndGlyphs" style="font-size:9.6px;fill:#586e75;font-family:&quot;Arial&quot;" text-anchor="end" textLength="34.2" transform="rotate(-45 829.311 -213.462)">VSCode</text><text lengthAdjust="spacingAndGlyphs" style="font-size:9.6px;fill:#586e75;font-family:&quot;Arial&quot;" text-anchor="end" textLength="13.75" transform="rotate(-45 875.946 -326.049)">vte</text><text lengthAdjust="spacingAndGlyphs" style="font-size:9.6px;fill:#586e75;font-family:&quot;Arial&quot;" text-anchor="end" textLength="42.52" transform="rotate(-45 922.581 -438.636)">WezTerm</text><text x="342.36" y="567.14" lengthAdjust="spacingAndGlyphs" style="font-size:12px;fill:#839496;font-family:&quot;Arial&quot;" text-anchor="middle" textLength="29.61">Term</text><text lengthAdjust="spacingAndGlyphs" style="font-size:12px;fill:#839496;font-family:&quot;Arial&quot;" text-anchor="middle" textLength="118.25" transform="rotate(-90 142.115 127.565)">Median duration [μs]</text><path d="M643.45 246.35h70.57v46.66h-70.57z" style="stroke-width:1.16;stroke:none;fill:#002b36"/><text x="649.43" y="262.33" lengthAdjust="spacingAndGlyphs" style="font-size:12px;fill:#839496;font-family:&quot;Arial&quot;" textLength="58.62">supported</text><path d="M649.43 269.75h17.28v17.28h-17.28z" style="stroke-width:1.16;stroke:none;fill:#073642"/><path d="M650.14 270.46H666v15.86h-15.86z" style="stroke-width:1.07;stroke:none;stroke-linecap:butt;stroke-linejoin:miter;fill:#4682b4"/><text x="672.69" y="281.82" lengthAdjust="spacingAndGlyphs" style="font-size:9.6px;fill:#586e75;font-family:&quot;Arial&quot;" textLength="20.64">True</text><text x="53.23" y="16.26" lengthAdjust="spacingAndGlyphs" style="font-size:14.4px;fill:#839496;font-family:&quot;Arial&quot;" textLength="325.64">Median duration per terminal for slow terminals</text></g></svg>