<svg xmlns="http://www.w3.org/2000/svg" width="960" height="768" viewBox="0 0 720 576"><g class="svglite"><defs><style>.svglite text{white-space:pre}</style></defs><rect width="100%" height="100%" style="stroke-linecap:round;stroke-linejoin:round;stroke-miterlimit:10;stroke:none;fill:#fdf6e3"/><defs><clipPath id="cpMC4wMHw3MjAuMDB8MC4wMHw1NzYuMDA="><path d="M0 0h720v576H0z"/></clipPath></defs><g clip-path="url(#cpMC4wMHw3MjAuMDB8MC4wMHw1NzYuMDA=)"><path d="M0 0h720v576H0z" style="stroke-width:1.16;stroke:none;fill:#fdf6e3"/></g><defs><clipPath id="cpNDEuNzB8NjM2LjU4fDI1LjU5fDQ5OS43MQ=="><path d="M41.7 25.59h594.88v474.12H41.7z"/></clipPath></defs><g clip-path="url(#cpNDEuNzB8NjM2LjU4fDI1LjU5fDQ5OS43MQ==)"><path d="M41.7 25.59h594.88v474.12H41.7z" style="stroke-width:1.16;stroke:none;fill:#eee8d5"/><path d="M41.7 425.22h594.88M41.7 319.33h594.88M41.7 213.44h594.88M41.7 107.56h594.88" style="stroke-width:.53;stroke:#fdf6e3;stroke-linecap:butt"/><path d="M41.7 478.16h594.88M41.7 372.27h594.88M41.7 266.39h594.88M41.7 160.5h594.88M41.7 54.61h594.88m-571.4 445.1V25.59m39.14 474.12V25.59m39.14 474.12V25.59m39.13 474.12V25.59m39.14 474.12V25.59m39.14 474.12V25.59M300 499.71V25.59m39.14 474.12V25.59m39.14 474.12V25.59m39.13 474.12V25.59m39.14 474.12V25.59m39.14 474.12V25.59m39.13 474.12V25.59m39.14 474.12V25.59m39.14 474.12V25.59" style="stroke-width:1.16;stroke:#fdf6e3;stroke-linecap:butt"/><path d="M47.57 391.65h35.22v86.51H47.57z" style="stroke-width:1.07;stroke:none;stroke-linecap:butt;stroke-linejoin:miter;fill:#4682b4"/><path d="M86.71 423.1h35.22v55.06H86.71zm39.13-270.79h35.22v325.85h-35.22z" style="stroke-width:1.07;stroke:none;stroke-linecap:butt;stroke-linejoin:miter;fill:#ee6a50"/><path d="M164.98 424.22h35.22v53.94h-35.22zm39.14-82.13h35.22v136.06h-35.22zm39.13-196.33h35.22v332.4h-35.22zm39.14 259.87h35.22v72.53h-35.22z" style="stroke-width:1.07;stroke:none;stroke-linecap:butt;stroke-linejoin:miter;fill:#4682b4"/><path d="M321.53 443.85h35.22v34.31h-35.22zm39.14-60.38h35.22v94.68h-35.22zm39.13 40.01h35.22v54.68H399.8z" style="stroke-width:1.07;stroke:none;stroke-linecap:butt;stroke-linejoin:miter;fill:#ee6a50"/><path d="M438.94 369.12h35.22v109.04h-35.22zm39.14 53.26h35.22v55.78h-35.22zm39.13-375.24h35.22v431.02h-35.22zm39.14 350.8h35.22v80.22h-35.22zm39.14-1.89h35.22v82.1h-35.22z" style="stroke-width:1.07;stroke:none;stroke-linecap:butt;stroke-linejoin:miter;fill:#4682b4"/></g><g clip-path="url(#cpMC4wMHw3MjAuMDB8MC4wMHw1NzYuMDA=)"><path d="M41.7 499.71V25.59" style="stroke-width:1.16;stroke:none;stroke-linecap:butt"/><text x="36.32" y="481.65" lengthAdjust="spacingAndGlyphs" style="font-size:9.6px;fill:#93a1a1;font-family:&quot;Nimbus Sans&quot;" text-anchor="end" textLength="5.33">0</text><text x="36.32" y="375.77" lengthAdjust="spacingAndGlyphs" style="font-size:9.6px;fill:#93a1a1;font-family:&quot;Nimbus Sans&quot;" text-anchor="end" textLength="10.66">50</text><text x="36.32" y="269.88" lengthAdjust="spacingAndGlyphs" style="font-size:9.6px;fill:#93a1a1;font-family:&quot;Nimbus Sans&quot;" text-anchor="end" textLength="15.98">100</text><text x="36.32" y="164" lengthAdjust="spacingAndGlyphs" style="font-size:9.6px;fill:#93a1a1;font-family:&quot;Nimbus Sans&quot;" text-anchor="end" textLength="15.98">150</text><text x="36.32" y="58.11" lengthAdjust="spacingAndGlyphs" style="font-size:9.6px;fill:#93a1a1;font-family:&quot;Nimbus Sans&quot;" text-anchor="end" textLength="15.98">200</text><path d="M38.71 478.16h2.99m-2.99-105.89h2.99m-2.99-105.88h2.99M38.71 160.5h2.99M38.71 54.61h2.99" style="stroke-width:1.16;stroke:#93a1a1;stroke-linecap:butt"/><path d="M41.7 499.71h594.88" style="stroke-width:1.16;stroke:none;stroke-linecap:butt"/><path d="M65.18 502.7v-2.99m39.14 2.99v-2.99m39.14 2.99v-2.99m39.13 2.99v-2.99m39.14 2.99v-2.99m39.14 2.99v-2.99M300 502.7v-2.99m39.14 2.99v-2.99m39.14 2.99v-2.99m39.13 2.99v-2.99m39.14 2.99v-2.99m39.14 2.99v-2.99m39.13 2.99v-2.99m39.14 2.99v-2.99m39.14 2.99v-2.99" style="stroke-width:1.16;stroke:#93a1a1;stroke-linecap:butt"/><text lengthAdjust="spacingAndGlyphs" style="font-size:9.6px;fill:#93a1a1;font-family:&quot;Nimbus Sans&quot;" text-anchor="end" textLength="34.48" transform="rotate(-45 650.726 170.36)">Alacritty</text><text lengthAdjust="spacingAndGlyphs" style="font-size:9.6px;fill:#93a1a1;font-family:&quot;Nimbus Sans&quot;" text-anchor="end" textLength="62.44" transform="rotate(-45 670.29 123.127)">cool-retro-term</text><text lengthAdjust="spacingAndGlyphs" style="font-size:9.6px;fill:#93a1a1;font-family:&quot;Nimbus Sans&quot;" text-anchor="end" textLength="21.11" transform="rotate(-45 689.86 75.88)">Fleet</text><text lengthAdjust="spacingAndGlyphs" style="font-size:9.6px;fill:#93a1a1;font-family:&quot;Nimbus Sans&quot;" text-anchor="end" textLength="15.81" transform="rotate(-45 709.43 28.634)">foot</text><text lengthAdjust="spacingAndGlyphs" style="font-size:9.6px;fill:#93a1a1;font-family:&quot;Nimbus Sans&quot;" text-anchor="end" textLength="33.39" transform="rotate(-45 728.996 -18.6)">Ghostty</text><text lengthAdjust="spacingAndGlyphs" style="font-size:9.6px;fill:#93a1a1;font-family:&quot;Nimbus Sans&quot;" text-anchor="end" textLength="51.98" transform="rotate(-45 748.566 -65.846)">IntelliJ IDEA</text><text lengthAdjust="spacingAndGlyphs" style="font-size:9.6px;fill:#93a1a1;font-family:&quot;Nimbus Sans&quot;" text-anchor="end" textLength="34.36" transform="rotate(-45 768.136 -113.092)">Konsole</text><text lengthAdjust="spacingAndGlyphs" style="font-size:9.6px;fill:#93a1a1;font-family:&quot;Nimbus Sans&quot;" text-anchor="end" textLength="19.66" transform="rotate(-45 787.7 -160.326)">linux</text><text lengthAdjust="spacingAndGlyphs" style="font-size:9.6px;fill:#93a1a1;font-family:&quot;Nimbus Sans&quot;" text-anchor="end" textLength="55.14" transform="rotate(-45 807.27 -207.572)">QMLKonsole</text><text lengthAdjust="spacingAndGlyphs" style="font-size:9.6px;fill:#93a1a1;font-family:&quot;Nimbus Sans&quot;" text-anchor="end" textLength="43.84" transform="rotate(-45 826.84 -254.819)">QTerminal</text><text lengthAdjust="spacingAndGlyphs" style="font-size:9.6px;fill:#93a1a1;font-family:&quot;Nimbus Sans&quot;" text-anchor="end" textLength="14.38" transform="rotate(-45 846.406 -302.053)">Rio</text><text lengthAdjust="spacingAndGlyphs" style="font-size:9.6px;fill:#93a1a1;font-family:&quot;Nimbus Sans&quot;" text-anchor="end" textLength="52.31" transform="rotate(-45 865.976 -349.299)">rxvt-unicode</text><text lengthAdjust="spacingAndGlyphs" style="font-size:9.6px;fill:#93a1a1;font-family:&quot;Nimbus Sans&quot;" text-anchor="end" textLength="54.88" transform="rotate(-45 885.546 -396.545)">Terminal.app</text><text lengthAdjust="spacingAndGlyphs" style="font-size:9.6px;fill:#93a1a1;font-family:&quot;Nimbus Sans&quot;" text-anchor="end" textLength="51.75" transform="rotate(-45 905.116 -443.791)">Terminology</text><text lengthAdjust="spacingAndGlyphs" style="font-size:9.6px;fill:#93a1a1;font-family:&quot;Nimbus Sans&quot;" text-anchor="end" textLength="23.83" transform="rotate(-45 924.68 -491.025)">xterm</text><text x="339.14" y="567.4" lengthAdjust="spacingAndGlyphs" style="font-size:12px;fill:#657b83;font-family:&quot;Nimbus Sans&quot;" text-anchor="middle" textLength="26.89">Term</text><text lengthAdjust="spacingAndGlyphs" style="font-size:12px;fill:#657b83;font-family:&quot;Nimbus Sans&quot;" text-anchor="middle" textLength="108.75" transform="rotate(-90 138.69 123.96)">Median duration [μs]</text><path d="M648.54 230.72h65.49v63.86h-65.49z" style="stroke-width:1.16;stroke:none;fill:#fdf6e3"/><text x="654.51" y="246.76" lengthAdjust="spacingAndGlyphs" style="font-size:12px;fill:#657b83;font-family:&quot;Nimbus Sans&quot;" textLength="53.53">supported</text><path d="M654.51 254.04h17.28v17.28h-17.28z" style="stroke-width:1.16;stroke:none;fill:#eee8d5"/><path d="M655.22 254.75h15.86v15.86h-15.86z" style="stroke-width:1.07;stroke:none;stroke-linecap:butt;stroke-linejoin:miter;fill:#ee6a50"/><path d="M654.51 271.32h17.28v17.28h-17.28z" style="stroke-width:1.16;stroke:none;fill:#eee8d5"/><path d="M655.22 272.03h15.86v15.86h-15.86z" style="stroke-width:1.07;stroke:none;stroke-linecap:butt;stroke-linejoin:miter;fill:#4682b4"/><text x="677.77" y="266.18" lengthAdjust="spacingAndGlyphs" style="font-size:9.6px;fill:#93a1a1;font-family:&quot;Nimbus Sans&quot;" textLength="23.11">False</text><text x="677.77" y="283.46" lengthAdjust="spacingAndGlyphs" style="font-size:9.6px;fill:#93a1a1;font-family:&quot;Nimbus Sans&quot;" textLength="18.84">True</text><text x="41.7" y="16.47" lengthAdjust="spacingAndGlyphs" style="font-size:14.4px;fill:#657b83;font-family:&quot;Nimbus Sans&quot;" textLength="292.47">Median duration per terminal for fast terminals</text></g></g></svg>