<svg xmlns="http://www.w3.org/2000/svg" width="960" height="768" class="svglite" viewBox="0 0 720 576"><defs><style>.svglite polyline,.svglite rect{fill:none;stroke:#000;stroke-linecap:round;stroke-linejoin:round;stroke-miterlimit:10}.svglite text{white-space:pre}</style></defs><rect width="100%" height="100%" style="stroke:none;fill:#002b36"/><defs><clipPath id="cpMC4wMHw3MjAuMDB8MC4wMHw1NzYuMDA="><path d="M0 0h720v576H0z"/></clipPath></defs><g clip-path="url(#cpMC4wMHw3MjAuMDB8MC4wMHw1NzYuMDA=)"><path d="M0 0h720v576H0z" style="stroke-width:1.16;stroke:none;fill:#002b36"/></g><defs><clipPath id="cpNTMuMjN8NjMxLjUwfDI1LjY5fDUxMy42Ng=="><path d="M53.23 25.69H631.5v487.97H53.23z"/></clipPath></defs><g clip-path="url(#cpNTMuMjN8NjMxLjUwfDI1LjY5fDUxMy42Ng==)"><path d="M53.23 25.69H631.5v487.97H53.23z" style="stroke-width:1.16;stroke:none;fill:#073642"/><path d="M53.23 406.52H631.5M53.23 236.58H631.5M53.23 66.65H631.5" style="stroke-width:.53;stroke:#002b36;stroke-linecap:butt"/><path d="M53.23 491.48H631.5M53.23 321.55H631.5M53.23 151.62H631.5M101.42 513.66V25.69M181.73 513.66V25.69M262.05 513.66V25.69M342.36 513.66V25.69M422.68 513.66V25.69M502.99 513.66V25.69M583.31 513.66V25.69" style="stroke-width:1.16;stroke:#002b36;stroke-linecap:butt"/><path d="M65.27 165.33h72.28v326.15H65.27zM145.59 192.97h72.28v298.51h-72.28zM225.9 438.53h72.28v52.95H225.9zM306.22 47.87h72.28v443.61h-72.28zM386.53 234.17h72.28v257.31h-72.28zM466.85 438.14h72.28v53.34h-72.28zM547.17 306.86h72.28v184.62h-72.28z" style="stroke-width:1.07;stroke:none;stroke-linecap:butt;stroke-linejoin:miter;fill:#4682b4"/></g><g clip-path="url(#cpMC4wMHw3MjAuMDB8MC4wMHw1NzYuMDA=)"><path d="M53.23 513.66V25.69" style="stroke-width:1.16;stroke:none;stroke-linecap:butt"/><text x="47.85" y="494.91" lengthAdjust="spacingAndGlyphs" style="font-size:9.6px;fill:#586e75;font-family:&quot;Arial&quot;" text-anchor="end" textLength="5.49">0</text><text x="47.85" y="324.98" lengthAdjust="spacingAndGlyphs" style="font-size:9.6px;fill:#586e75;font-family:&quot;Arial&quot;" text-anchor="end" textLength="27.43">10000</text><text x="47.85" y="155.05" lengthAdjust="spacingAndGlyphs" style="font-size:9.6px;fill:#586e75;font-family:&quot;Arial&quot;" text-anchor="end" textLength="27.43">20000</text><path d="M50.24 491.48h2.99M50.24 321.55h2.99M50.24 151.62h2.99" style="stroke-width:1.16;stroke:#586e75;stroke-linecap:butt"/><path d="M53.23 513.66H631.5" style="stroke-width:1.16;stroke:none;stroke-linecap:butt"/><path d="M101.42 516.65v-2.99M181.73 516.65v-2.99M262.05 516.65v-2.99M342.36 516.65v-2.99M422.68 516.65v-2.99M502.99 516.65v-2.99M583.31 516.65v-2.99" style="stroke-width:1.16;stroke:#586e75;stroke-linecap:butt"/><text lengthAdjust="spacingAndGlyphs" style="font-size:9.6px;fill:#586e75;font-family:&quot;Arial&quot;" text-anchor="end" textLength="27.27" transform="rotate(-45 685.521 133.678)">Hyper</text><text lengthAdjust="spacingAndGlyphs" style="font-size:9.6px;fill:#586e75;font-family:&quot;Arial&quot;" text-anchor="end" textLength="31.64" transform="rotate(-45 725.681 36.723)">iTerm2</text><text lengthAdjust="spacingAndGlyphs" style="font-size:9.6px;fill:#586e75;font-family:&quot;Arial&quot;" text-anchor="end" textLength="19.43" transform="rotate(-45 765.836 -60.22)">kitty</text><text lengthAdjust="spacingAndGlyphs" style="font-size:9.6px;fill:#586e75;font-family:&quot;Arial&quot;" text-anchor="end" textLength="34.2" transform="rotate(-45 805.996 -157.175)">VSCode</text><text lengthAdjust="spacingAndGlyphs" style="font-size:9.6px;fill:#586e75;font-family:&quot;Arial&quot;" text-anchor="end" textLength="13.75" transform="rotate(-45 846.151 -254.117)">vte</text><text lengthAdjust="spacingAndGlyphs" style="font-size:9.6px;fill:#586e75;font-family:&quot;Arial&quot;" text-anchor="end" textLength="42.52" transform="rotate(-45 886.311 -351.072)">WezTerm</text><text lengthAdjust="spacingAndGlyphs" style="font-size:9.6px;fill:#586e75;font-family:&quot;Arial&quot;" text-anchor="end" textLength="16.8" transform="rotate(-45 926.466 -448.015)">Zed</text><text x="342.36" y="567.14" lengthAdjust="spacingAndGlyphs" style="font-size:12px;fill:#839496;font-family:&quot;Arial&quot;" text-anchor="middle" textLength="29.61">Term</text><text lengthAdjust="spacingAndGlyphs" style="font-size:12px;fill:#839496;font-family:&quot;Arial&quot;" text-anchor="middle" textLength="118.25" transform="rotate(-90 142.115 127.565)">Median duration [μs]</text><path d="M643.45 246.35h70.57v46.66h-70.57z" style="stroke-width:1.16;stroke:none;fill:#002b36"/><text x="649.43" y="262.33" lengthAdjust="spacingAndGlyphs" style="font-size:12px;fill:#839496;font-family:&quot;Arial&quot;" textLength="58.62">supported</text><path d="M649.43 269.75h17.28v17.28h-17.28z" style="stroke-width:1.16;stroke:none;fill:#073642"/><path d="M650.14 270.46H666v15.86h-15.86z" style="stroke-width:1.07;stroke:none;stroke-linecap:butt;stroke-linejoin:miter;fill:#4682b4"/><text x="672.69" y="281.82" lengthAdjust="spacingAndGlyphs" style="font-size:9.6px;fill:#586e75;font-family:&quot;Arial&quot;" textLength="20.64">True</text><text x="53.23" y="16.26" lengthAdjust="spacingAndGlyphs" style="font-size:14.4px;fill:#839496;font-family:&quot;Arial&quot;" textLength="325.64">Median duration per terminal for slow terminals</text></g></svg>