<svg xmlns="http://www.w3.org/2000/svg" width="960" height="768" viewBox="0 0 720 576"><g class="svglite"><defs><style>.svglite polyline,.svglite rect{fill:none;stroke:#000;stroke-linecap:round;stroke-linejoin:round;stroke-miterlimit:10}.svglite text{white-space:pre}</style></defs><rect width="100%" height="100%" style="stroke:none;fill:#002b36"/><defs><clipPath id="cpMC4wMHw3MjAuMDB8MC4wMHw1NzYuMDA="><path d="M0 0h720v576H0z"/></clipPath></defs><g clip-path="url(#cpMC4wMHw3MjAuMDB8MC4wMHw1NzYuMDA=)"><path d="M0 0h720v576H0z" style="stroke-width:1.16;stroke:none;fill:#002b36"/></g><defs><clipPath id="cpNDEuNzB8NjM2LjU4fDI1LjU5fDQ5OS43MQ=="><path d="M41.7 25.59h594.88v474.12H41.7z"/></clipPath></defs><g clip-path="url(#cpNDEuNzB8NjM2LjU4fDI1LjU5fDQ5OS43MQ==)"><path d="M41.7 25.59h594.88v474.12H41.7z" style="stroke-width:1.16;stroke:none;fill:#073642"/><path d="M41.7 425.22h594.88M41.7 319.33h594.88M41.7 213.44h594.88M41.7 107.56h594.88" style="stroke-width:.53;stroke:#002b36;stroke-linecap:butt"/><path d="M41.7 478.16h594.88M41.7 372.27h594.88M41.7 266.39h594.88M41.7 160.5h594.88M41.7 54.61h594.88M65.18 499.71V25.59M104.32 499.71V25.59M143.46 499.71V25.59M182.59 499.71V25.59M221.73 499.71V25.59M260.87 499.71V25.59M300 499.71V25.59M339.14 499.71V25.59M378.28 499.71V25.59M417.41 499.71V25.59M456.55 499.71V25.59M495.69 499.71V25.59M534.82 499.71V25.59M573.96 499.71V25.59M613.1 499.71V25.59" style="stroke-width:1.16;stroke:#002b36;stroke-linecap:butt"/><path d="M47.57 391.65h35.22v86.51H47.57z" style="stroke-width:1.07;stroke:none;stroke-linecap:butt;stroke-linejoin:miter;fill:#4682b4"/><path d="M86.71 423.1h35.22v55.06H86.71zM125.84 152.31h35.22v325.85h-35.22z" style="stroke-width:1.07;stroke:none;stroke-linecap:butt;stroke-linejoin:miter;fill:#ee6a50"/><path d="M164.98 424.22h35.22v53.94h-35.22zM204.12 342.09h35.22v136.06h-35.22zM243.25 145.76h35.22v332.4h-35.22zM282.39 405.63h35.22v72.53h-35.22z" style="stroke-width:1.07;stroke:none;stroke-linecap:butt;stroke-linejoin:miter;fill:#4682b4"/><path d="M321.53 443.85h35.22v34.31h-35.22zM360.67 383.47h35.22v94.68h-35.22zM399.8 423.48h35.22v54.68H399.8z" style="stroke-width:1.07;stroke:none;stroke-linecap:butt;stroke-linejoin:miter;fill:#ee6a50"/><path d="M438.94 369.12h35.22v109.04h-35.22zM478.08 422.38h35.22v55.78h-35.22zM517.21 47.14h35.22v431.02h-35.22zM556.35 397.94h35.22v80.22h-35.22zM595.49 396.05h35.22v82.1h-35.22z" style="stroke-width:1.07;stroke:none;stroke-linecap:butt;stroke-linejoin:miter;fill:#4682b4"/></g><g clip-path="url(#cpMC4wMHw3MjAuMDB8MC4wMHw1NzYuMDA=)"><path d="M41.7 499.71V25.59" style="stroke-width:1.16;stroke:none;stroke-linecap:butt"/><text x="36.32" y="481.65" lengthAdjust="spacingAndGlyphs" style="font-size:9.6px;fill:#586e75;font-family:&quot;Nimbus Sans&quot;" text-anchor="end" textLength="5.33">0</text><text x="36.32" y="375.77" lengthAdjust="spacingAndGlyphs" style="font-size:9.6px;fill:#586e75;font-family:&quot;Nimbus Sans&quot;" text-anchor="end" textLength="10.66">50</text><text x="36.32" y="269.88" lengthAdjust="spacingAndGlyphs" style="font-size:9.6px;fill:#586e75;font-family:&quot;Nimbus Sans&quot;" text-anchor="end" textLength="15.98">100</text><text x="36.32" y="164" lengthAdjust="spacingAndGlyphs" style="font-size:9.6px;fill:#586e75;font-family:&quot;Nimbus Sans&quot;" text-anchor="end" textLength="15.98">150</text><text x="36.32" y="58.11" lengthAdjust="spacingAndGlyphs" style="font-size:9.6px;fill:#586e75;font-family:&quot;Nimbus Sans&quot;" text-anchor="end" textLength="15.98">200</text><path d="M38.71 478.16h2.99M38.71 372.27h2.99M38.71 266.39h2.99M38.71 160.5h2.99M38.71 54.61h2.99" style="stroke-width:1.16;stroke:#586e75;stroke-linecap:butt"/><path d="M41.7 499.71h594.88" style="stroke-width:1.16;stroke:none;stroke-linecap:butt"/><path d="M65.18 502.7v-2.99M104.32 502.7v-2.99M143.46 502.7v-2.99M182.59 502.7v-2.99M221.73 502.7v-2.99M260.87 502.7v-2.99M300 502.7v-2.99M339.14 502.7v-2.99M378.28 502.7v-2.99M417.41 502.7v-2.99M456.55 502.7v-2.99M495.69 502.7v-2.99M534.82 502.7v-2.99M573.96 502.7v-2.99M613.1 502.7v-2.99" style="stroke-width:1.16;stroke:#586e75;stroke-linecap:butt"/><text lengthAdjust="spacingAndGlyphs" style="font-size:9.6px;fill:#586e75;font-family:&quot;Nimbus Sans&quot;" text-anchor="end" textLength="34.48" transform="rotate(-45 650.726 170.36)">Alacritty</text><text lengthAdjust="spacingAndGlyphs" style="font-size:9.6px;fill:#586e75;font-family:&quot;Nimbus Sans&quot;" text-anchor="end" textLength="62.44" transform="rotate(-45 670.29 123.127)">cool-retro-term</text><text lengthAdjust="spacingAndGlyphs" style="font-size:9.6px;fill:#586e75;font-family:&quot;Nimbus Sans&quot;" text-anchor="end" textLength="21.11" transform="rotate(-45 689.86 75.88)">Fleet</text><text lengthAdjust="spacingAndGlyphs" style="font-size:9.6px;fill:#586e75;font-family:&quot;Nimbus Sans&quot;" text-anchor="end" textLength="15.81" transform="rotate(-45 709.43 28.634)">foot</text><text lengthAdjust="spacingAndGlyphs" style="font-size:9.6px;fill:#586e75;font-family:&quot;Nimbus Sans&quot;" text-anchor="end" textLength="33.39" transform="rotate(-45 728.996 -18.6)">Ghostty</text><text lengthAdjust="spacingAndGlyphs" style="font-size:9.6px;fill:#586e75;font-family:&quot;Nimbus Sans&quot;" text-anchor="end" textLength="51.98" transform="rotate(-45 748.566 -65.846)">IntelliJ IDEA</text><text lengthAdjust="spacingAndGlyphs" style="font-size:9.6px;fill:#586e75;font-family:&quot;Nimbus Sans&quot;" text-anchor="end" textLength="34.36" transform="rotate(-45 768.136 -113.092)">Konsole</text><text lengthAdjust="spacingAndGlyphs" style="font-size:9.6px;fill:#586e75;font-family:&quot;Nimbus Sans&quot;" text-anchor="end" textLength="19.66" transform="rotate(-45 787.7 -160.326)">linux</text><text lengthAdjust="spacingAndGlyphs" style="font-size:9.6px;fill:#586e75;font-family:&quot;Nimbus Sans&quot;" text-anchor="end" textLength="55.14" transform="rotate(-45 807.27 -207.572)">QMLKonsole</text><text lengthAdjust="spacingAndGlyphs" style="font-size:9.6px;fill:#586e75;font-family:&quot;Nimbus Sans&quot;" text-anchor="end" textLength="43.84" transform="rotate(-45 826.84 -254.819)">QTerminal</text><text lengthAdjust="spacingAndGlyphs" style="font-size:9.6px;fill:#586e75;font-family:&quot;Nimbus Sans&quot;" text-anchor="end" textLength="14.38" transform="rotate(-45 846.406 -302.053)">Rio</text><text lengthAdjust="spacingAndGlyphs" style="font-size:9.6px;fill:#586e75;font-family:&quot;Nimbus Sans&quot;" text-anchor="end" textLength="52.31" transform="rotate(-45 865.976 -349.299)">rxvt-unicode</text><text lengthAdjust="spacingAndGlyphs" style="font-size:9.6px;fill:#586e75;font-family:&quot;Nimbus Sans&quot;" text-anchor="end" textLength="54.88" transform="rotate(-45 885.546 -396.545)">Terminal.app</text><text lengthAdjust="spacingAndGlyphs" style="font-size:9.6px;fill:#586e75;font-family:&quot;Nimbus Sans&quot;" text-anchor="end" textLength="51.75" transform="rotate(-45 905.116 -443.791)">Terminology</text><text lengthAdjust="spacingAndGlyphs" style="font-size:9.6px;fill:#586e75;font-family:&quot;Nimbus Sans&quot;" text-anchor="end" textLength="23.83" transform="rotate(-45 924.68 -491.025)">xterm</text><text x="339.14" y="567.4" lengthAdjust="spacingAndGlyphs" style="font-size:12px;fill:#839496;font-family:&quot;Nimbus Sans&quot;" text-anchor="middle" textLength="26.89">Term</text><text lengthAdjust="spacingAndGlyphs" style="font-size:12px;fill:#839496;font-family:&quot;Nimbus Sans&quot;" text-anchor="middle" textLength="108.75" transform="rotate(-90 138.69 123.96)">Median duration [μs]</text><path d="M648.54 230.72h65.49v63.86h-65.49z" style="stroke-width:1.16;stroke:none;fill:#002b36"/><text x="654.51" y="246.76" lengthAdjust="spacingAndGlyphs" style="font-size:12px;fill:#839496;font-family:&quot;Nimbus Sans&quot;" textLength="53.53">supported</text><path d="M654.51 254.04h17.28v17.28h-17.28z" style="stroke-width:1.16;stroke:none;fill:#073642"/><path d="M655.22 254.75h15.86v15.86h-15.86z" style="stroke-width:1.07;stroke:none;stroke-linecap:butt;stroke-linejoin:miter;fill:#ee6a50"/><path d="M654.51 271.32h17.28v17.28h-17.28z" style="stroke-width:1.16;stroke:none;fill:#073642"/><path d="M655.22 272.03h15.86v15.86h-15.86z" style="stroke-width:1.07;stroke:none;stroke-linecap:butt;stroke-linejoin:miter;fill:#4682b4"/><text x="677.77" y="266.18" lengthAdjust="spacingAndGlyphs" style="font-size:9.6px;fill:#586e75;font-family:&quot;Nimbus Sans&quot;" textLength="23.11">False</text><text x="677.77" y="283.46" lengthAdjust="spacingAndGlyphs" style="font-size:9.6px;fill:#586e75;font-family:&quot;Nimbus Sans&quot;" textLength="18.84">True</text><text x="41.7" y="16.47" lengthAdjust="spacingAndGlyphs" style="font-size:14.4px;fill:#839496;font-family:&quot;Nimbus Sans&quot;" textLength="292.47">Median duration per terminal for fast terminals</text></g></g></svg>