<svg xmlns="http://www.w3.org/2000/svg" class="svglite" width="960" height="768" viewBox="0 0 720 576"><defs><style>.svglite polyline,.svglite rect{fill:none;stroke:#000;stroke-linecap:round;stroke-linejoin:round;stroke-miterlimit:10}.svglite text{white-space:pre}</style></defs><rect width="100%" height="100%" fill="#fdf6e3"/><defs><clipPath id="cpMC4wMHw3MjAuMDB8MC4wMHw1NzYuMDA="><path d="M0 0h720v576H0z"/></clipPath></defs><g clip-path="url(#cpMC4wMHw3MjAuMDB8MC4wMHw1NzYuMDA=)"><path stroke-width="1.16" fill="#fdf6e3" d="M0 0h720v576H0z"/></g><defs><clipPath id="cpNTIuMTR8NjM2LjczfDI1LjI4fDUxNS43NA=="><path d="M52.14 25.28h584.59v490.46H52.14z"/></clipPath></defs><g clip-path="url(#cpNTIuMTR8NjM2LjczfDI1LjI4fDUxNS43NA==)"><path stroke-width="1.16" fill="#eee8d5" d="M52.14 25.28h584.59v490.46H52.14z"/><path stroke-width=".53" stroke="#fdf6e3" d="M52.14 408.05h584.59M52.14 237.25h584.59M52.14 66.45h584.59"/><path stroke-width="1.16" stroke="#fdf6e3" d="M52.14 493.45h584.59M52.14 322.65h584.59M52.14 151.85h584.59M108.71 515.74V25.28M203 515.74V25.28M297.29 515.74V25.28M391.58 515.74V25.28M485.87 515.74V25.28M580.16 515.74V25.28"/><path stroke-width="1.07" fill="#4682b4" d="M66.28 165.63h84.86v327.82H66.28zM160.57 191.73h84.86v301.72h-84.86zM254.86 440.22h84.86v53.22h-84.86zM349.15 47.58h84.86v445.87h-84.86zM443.44 234.66h84.86v258.79h-84.86zM537.73 439.83h84.86v53.61h-84.86z"/></g><g clip-path="url(#cpMC4wMHw3MjAuMDB8MC4wMHw1NzYuMDA=)"><path stroke-width="1.16" d="M52.14 515.74V25.28"/><text x="46.76" y="496.88" text-anchor="end" textLength="5.34" lengthAdjust="spacingAndGlyphs" font-size="9.6" fill="#93a1a1" font-family="Arial">0</text><text x="46.76" y="326.08" text-anchor="end" textLength="26.68" lengthAdjust="spacingAndGlyphs" font-size="9.6" fill="#93a1a1" font-family="Arial">10000</text><text x="46.76" y="155.29" text-anchor="end" textLength="26.68" lengthAdjust="spacingAndGlyphs" font-size="9.6" fill="#93a1a1" font-family="Arial">20000</text><path stroke-width="1.16" stroke="#93a1a1" d="M49.15 493.45h2.99M49.15 322.65h2.99M49.15 151.85h2.99"/><path stroke-width="1.16" d="M52.14 515.74h584.59"/><path stroke-width="1.16" stroke="#93a1a1" d="M108.71 518.73v-2.99M203 518.73v-2.99M297.29 518.73v-2.99M391.58 518.73v-2.99M485.87 518.73v-2.99M580.16 518.73v-2.99"/><text transform="rotate(-45 691.699 125.899)" text-anchor="end" textLength="25.59" lengthAdjust="spacingAndGlyphs" font-size="9.6" fill="#93a1a1" font-family="Arial">Hyper</text><text transform="rotate(-45 738.844 12.08)" text-anchor="end" textLength="28.79" lengthAdjust="spacingAndGlyphs" font-size="9.6" fill="#93a1a1" font-family="Arial">iTerm2</text><text transform="rotate(-45 785.989 -101.737)" text-anchor="end" textLength="17.05" lengthAdjust="spacingAndGlyphs" font-size="9.6" fill="#93a1a1" font-family="Arial">kitty</text><text transform="rotate(-45 833.134 -215.555)" text-anchor="end" textLength="35.72" lengthAdjust="spacingAndGlyphs" font-size="9.6" fill="#93a1a1" font-family="Arial">VSCode</text><text transform="rotate(-45 880.279 -329.374)" text-anchor="end" textLength="12.79" lengthAdjust="spacingAndGlyphs" font-size="9.6" fill="#93a1a1" font-family="Arial">vte</text><text transform="rotate(-45 927.419 -443.18)" text-anchor="end" textLength="40.33" lengthAdjust="spacingAndGlyphs" font-size="9.6" fill="#93a1a1" font-family="Arial">WezTerm</text><text x="344.44" y="567.5" text-anchor="middle" textLength="26.67" lengthAdjust="spacingAndGlyphs" font-size="12" fill="#657b83" font-family="Arial">Term</text><text transform="rotate(-90 142.54 127.97)" text-anchor="middle" textLength="108.98" lengthAdjust="spacingAndGlyphs" font-size="12" fill="#657b83" font-family="Arial">Median duration [μs]</text><path stroke-width="1.16" fill="#fdf6e3" d="M648.69 247.35h65.34v46.33h-65.34z"/><text x="654.66" y="263.18" textLength="53.38" lengthAdjust="spacingAndGlyphs" font-size="12" fill="#657b83" font-family="Arial">supported</text><path stroke-width="1.16" fill="#eee8d5" d="M654.66 270.42h17.28v17.28h-17.28z"/><path stroke-width="1.07" fill="#4682b4" d="M655.37 271.13h15.86v15.86h-15.86z"/><text x="677.92" y="282.49" textLength="19.38" lengthAdjust="spacingAndGlyphs" font-size="9.6" fill="#93a1a1" font-family="Arial">True</text><text x="52.14" y="16.28" textLength="299.2" lengthAdjust="spacingAndGlyphs" font-size="14.4" fill="#657b83" font-family="Arial">Median duration per terminal for slow terminals</text></g></svg>