<svg xmlns="http://www.w3.org/2000/svg" width="960" height="768" viewBox="0 0 720 576"><g class="svglite"><defs><style>.svglite text{white-space:pre}</style></defs><rect width="100%" height="100%" style="stroke-linecap:round;stroke-linejoin:round;stroke-miterlimit:10;stroke:none;fill:#fdf6e3"/><defs><clipPath id="cpMC4wMHw3MjAuMDB8MC4wMHw1NzYuMDA="><path d="M0 0h720v576H0z"/></clipPath></defs><g clip-path="url(#cpMC4wMHw3MjAuMDB8MC4wMHw1NzYuMDA=)"><path d="M0 0h720v576H0z" style="stroke-width:1.16;stroke:none;fill:#fdf6e3"/></g><defs><clipPath id="cpNTIuMzZ8NjM2LjU4fDI1LjU5fDUxNS40MQ=="><path d="M52.36 25.59h584.23v489.82H52.36z"/></clipPath></defs><g clip-path="url(#cpNTIuMzZ8NjM2LjU4fDI1LjU5fDUxNS40MQ==)"><path d="M52.36 25.59h584.23v489.82H52.36z" style="stroke-width:1.16;stroke:none;fill:#eee8d5"/><path d="M52.36 407.86h584.22M52.36 237.28h584.22M52.36 66.71h584.22" style="stroke-width:.53;stroke:#fdf6e3;stroke-linecap:butt"/><path d="M52.36 493.15h584.22M52.36 322.57h584.22M52.36 152h584.22M101.04 515.41V25.59m81.14 489.82V25.59m81.15 489.82V25.59m81.14 489.82V25.59m81.14 489.82V25.59m81.14 489.82V25.59m81.15 489.82V25.59" style="stroke-width:1.16;stroke:#fdf6e3;stroke-linecap:butt"/><path d="M64.53 165.76h73.03v327.39H64.53zm81.14 27.21h73.03v300.17h-73.03zm81.14 247.02h73.03v53.15h-73.03zm81.14-392.13h73.03v445.29h-73.03zm81.15 186.92h73.03v258.37H389.1zm81.14 204.82h73.03v53.54h-73.03zm81.14-131.78h73.03v185.32h-73.03z" style="stroke-width:1.07;stroke:none;stroke-linecap:butt;stroke-linejoin:miter;fill:#4682b4"/></g><g clip-path="url(#cpMC4wMHw3MjAuMDB8MC4wMHw1NzYuMDA=)"><path d="M52.36 515.41V25.59" style="stroke-width:1.16;stroke:none;stroke-linecap:butt"/><text x="46.98" y="496.64" lengthAdjust="spacingAndGlyphs" style="font-size:9.6px;fill:#93a1a1;font-family:&quot;Nimbus Sans&quot;" text-anchor="end" textLength="5.33">0</text><text x="46.98" y="326.07" lengthAdjust="spacingAndGlyphs" style="font-size:9.6px;fill:#93a1a1;font-family:&quot;Nimbus Sans&quot;" text-anchor="end" textLength="26.64">10000</text><text x="46.98" y="155.49" lengthAdjust="spacingAndGlyphs" style="font-size:9.6px;fill:#93a1a1;font-family:&quot;Nimbus Sans&quot;" text-anchor="end" textLength="26.64">20000</text><path d="M49.37 493.15h2.99m-2.99-170.58h2.99M49.37 152h2.99" style="stroke-width:1.16;stroke:#93a1a1;stroke-linecap:butt"/><path d="M52.36 515.41h584.22" style="stroke-width:1.16;stroke:none;stroke-linecap:butt"/><path d="M101.04 518.4v-2.99m81.14 2.99v-2.99m81.15 2.99v-2.99m81.14 2.99v-2.99m81.14 2.99v-2.99m81.14 2.99v-2.99m81.15 2.99v-2.99" style="stroke-width:1.16;stroke:#93a1a1;stroke-linecap:butt"/><text lengthAdjust="spacingAndGlyphs" style="font-size:9.6px;fill:#93a1a1;font-family:&quot;Nimbus Sans&quot;" text-anchor="end" textLength="25.45" transform="rotate(-45 687.602 134.936)">Hyper</text><text lengthAdjust="spacingAndGlyphs" style="font-size:9.6px;fill:#93a1a1;font-family:&quot;Nimbus Sans&quot;" text-anchor="end" textLength="28.84" transform="rotate(-45 728.177 36.98)">iTerm2</text><text lengthAdjust="spacingAndGlyphs" style="font-size:9.6px;fill:#93a1a1;font-family:&quot;Nimbus Sans&quot;" text-anchor="end" textLength="17.48" transform="rotate(-45 768.747 -60.966)">kitty</text><text lengthAdjust="spacingAndGlyphs" style="font-size:9.6px;fill:#93a1a1;font-family:&quot;Nimbus Sans&quot;" text-anchor="end" textLength="35.25" transform="rotate(-45 809.317 -158.91)">VSCode</text><text lengthAdjust="spacingAndGlyphs" style="font-size:9.6px;fill:#93a1a1;font-family:&quot;Nimbus Sans&quot;" text-anchor="end" textLength="12.66" transform="rotate(-45 849.887 -256.855)">vte</text><text lengthAdjust="spacingAndGlyphs" style="font-size:9.6px;fill:#93a1a1;font-family:&quot;Nimbus Sans&quot;" text-anchor="end" textLength="40.23" transform="rotate(-45 890.462 -354.812)">WezTerm</text><text lengthAdjust="spacingAndGlyphs" style="font-size:9.6px;fill:#93a1a1;font-family:&quot;Nimbus Sans&quot;" text-anchor="end" textLength="16.38" transform="rotate(-45 931.032 -452.756)">Zed</text><text x="344.47" y="567.4" lengthAdjust="spacingAndGlyphs" style="font-size:12px;fill:#657b83;font-family:&quot;Nimbus Sans&quot;" text-anchor="middle" textLength="26.89">Term</text><text lengthAdjust="spacingAndGlyphs" style="font-size:12px;fill:#657b83;font-family:&quot;Nimbus Sans&quot;" text-anchor="middle" textLength="108.75" transform="rotate(-90 142.615 127.885)">Median duration [μs]</text><path d="M648.54 247.21h65.49v46.58h-65.49z" style="stroke-width:1.16;stroke:none;fill:#fdf6e3"/><text x="654.51" y="263.25" lengthAdjust="spacingAndGlyphs" style="font-size:12px;fill:#657b83;font-family:&quot;Nimbus Sans&quot;" textLength="53.53">supported</text><path d="M654.51 270.53h17.28v17.28h-17.28z" style="stroke-width:1.16;stroke:none;fill:#eee8d5"/><path d="M655.22 271.24h15.86v15.86h-15.86z" style="stroke-width:1.07;stroke:none;stroke-linecap:butt;stroke-linejoin:miter;fill:#4682b4"/><text x="677.77" y="282.67" lengthAdjust="spacingAndGlyphs" style="font-size:9.6px;fill:#93a1a1;font-family:&quot;Nimbus Sans&quot;" textLength="18.84">True</text><text x="52.36" y="16.47" lengthAdjust="spacingAndGlyphs" style="font-size:14.4px;fill:#657b83;font-family:&quot;Nimbus Sans&quot;" textLength="298.03">Median duration per terminal for slow terminals</text></g></g></svg>