<svg xmlns="http://www.w3.org/2000/svg" width="960" height="768" class="svglite" viewBox="0 0 720 576"><defs><style>.svglite polyline,.svglite rect{fill:none;stroke:#000;stroke-linecap:round;stroke-linejoin:round;stroke-miterlimit:10}.svglite text{white-space:pre}</style></defs><rect width="100%" height="100%" style="stroke:none;fill:#fdf6e3"/><defs><clipPath id="cpMC4wMHw3MjAuMDB8MC4wMHw1NzYuMDA="><path d="M0 0h720v576H0z"/></clipPath></defs><g clip-path="url(#cpMC4wMHw3MjAuMDB8MC4wMHw1NzYuMDA=)"><path d="M0 0h720v576H0z" style="stroke-width:1.16;stroke:none;fill:#fdf6e3"/></g><defs><clipPath id="cpNDIuMjV8NjMxLjUwfDI1LjY5fDQ5NC43NA=="><path d="M42.25 25.69h589.24v469.05H42.25z"/></clipPath></defs><g clip-path="url(#cpNDIuMjV8NjMxLjUwfDI1LjY5fDQ5NC43NA==)"><path d="M42.25 25.69h589.24v469.05H42.25z" style="stroke-width:1.16;stroke:none;fill:#eee8d5"/><path d="M42.25 421.04H631.5M42.25 316.29H631.5M42.25 211.54H631.5M42.25 106.78H631.5" style="stroke-width:.53;stroke:#fdf6e3;stroke-linecap:butt"/><path d="M42.25 473.42H631.5M42.25 368.67H631.5M42.25 263.91H631.5M42.25 159.16H631.5M42.25 54.4H631.5M64.08 494.74V25.69M100.45 494.74V25.69M136.82 494.74V25.69M173.2 494.74V25.69M209.57 494.74V25.69M245.94 494.74V25.69M282.32 494.74V25.69M318.69 494.74V25.69M355.06 494.74V25.69M391.43 494.74V25.69M427.81 494.74V25.69M464.18 494.74V25.69M500.55 494.74V25.69M536.93 494.74V25.69M573.3 494.74V25.69M609.67 494.74V25.69" style="stroke-width:1.16;stroke:#fdf6e3;stroke-linecap:butt"/><path d="M47.71 387.84h32.74v85.58H47.71z" style="stroke-width:1.07;stroke:none;stroke-linecap:butt;stroke-linejoin:miter;fill:#4682b4"/><path d="M84.08 418.95h32.74v54.47H84.08zM120.46 151.06h32.74v322.37h-32.74z" style="stroke-width:1.07;stroke:none;stroke-linecap:butt;stroke-linejoin:miter;fill:#ee6a50"/><path d="M156.83 420.06h32.74v53.36h-32.74zM193.2 338.81h32.74v134.61H193.2zM229.57 144.57h32.74v328.85h-32.74zM265.95 401.67h32.74v71.76h-32.74z" style="stroke-width:1.07;stroke:none;stroke-linecap:butt;stroke-linejoin:miter;fill:#4682b4"/><path d="M302.32 439.46h32.74v33.96h-32.74zM338.69 379.75h32.74v93.67h-32.74zM375.07 419.33h32.74v54.1h-32.74z" style="stroke-width:1.07;stroke:none;stroke-linecap:butt;stroke-linejoin:miter;fill:#ee6a50"/><path d="M411.44 365.55h32.74v107.88h-32.74zM447.81 418.24h32.74v55.18h-32.74zM484.19 418.87h32.74v54.56h-32.74zM520.56 47.01h32.74v426.41h-32.74zM556.93 394.06h32.74v79.36h-32.74zM593.31 392.2h32.74v81.23h-32.74z" style="stroke-width:1.07;stroke:none;stroke-linecap:butt;stroke-linejoin:miter;fill:#4682b4"/></g><g clip-path="url(#cpMC4wMHw3MjAuMDB8MC4wMHw1NzYuMDA=)"><path d="M42.25 494.74V25.69" style="stroke-width:1.16;stroke:none;stroke-linecap:butt"/><text x="36.87" y="476.85" lengthAdjust="spacingAndGlyphs" style="font-size:9.6px;fill:#93a1a1;font-family:&quot;Arial&quot;" text-anchor="end" textLength="5.49">0</text><text x="36.87" y="372.09" lengthAdjust="spacingAndGlyphs" style="font-size:9.6px;fill:#93a1a1;font-family:&quot;Arial&quot;" text-anchor="end" textLength="10.97">50</text><text x="36.87" y="267.34" lengthAdjust="spacingAndGlyphs" style="font-size:9.6px;fill:#93a1a1;font-family:&quot;Arial&quot;" text-anchor="end" textLength="16.46">100</text><text x="36.87" y="162.59" lengthAdjust="spacingAndGlyphs" style="font-size:9.6px;fill:#93a1a1;font-family:&quot;Arial&quot;" text-anchor="end" textLength="16.46">150</text><text x="36.87" y="57.83" lengthAdjust="spacingAndGlyphs" style="font-size:9.6px;fill:#93a1a1;font-family:&quot;Arial&quot;" text-anchor="end" textLength="16.46">200</text><path d="M39.26 473.42h2.99M39.26 368.67h2.99M39.26 263.91h2.99M39.26 159.16h2.99M39.26 54.4h2.99" style="stroke-width:1.16;stroke:#93a1a1;stroke-linecap:butt"/><path d="M42.25 494.74H631.5" style="stroke-width:1.16;stroke:none;stroke-linecap:butt"/><path d="M64.08 497.73v-2.99M100.45 497.73v-2.99M136.82 497.73v-2.99M173.2 497.73v-2.99M209.57 497.73v-2.99M245.94 497.73v-2.99M282.32 497.73v-2.99M318.69 497.73v-2.99M355.06 497.73v-2.99M391.43 497.73v-2.99M427.81 497.73v-2.99M464.18 497.73v-2.99M500.55 497.73v-2.99M536.93 497.73v-2.99M573.3 497.73v-2.99M609.67 497.73v-2.99" style="stroke-width:1.16;stroke:#93a1a1;stroke-linecap:butt"/><text lengthAdjust="spacingAndGlyphs" style="font-size:9.6px;fill:#93a1a1;font-family:&quot;Arial&quot;" text-anchor="end" textLength="36.86" transform="rotate(-45 644.013 169.291)">Alacritty</text><text lengthAdjust="spacingAndGlyphs" style="font-size:9.6px;fill:#93a1a1;font-family:&quot;Arial&quot;" text-anchor="end" textLength="69.28" transform="rotate(-45 662.203 125.377)">cool-retro-term</text><text lengthAdjust="spacingAndGlyphs" style="font-size:9.6px;fill:#93a1a1;font-family:&quot;Arial&quot;" text-anchor="end" textLength="21.75" transform="rotate(-45 680.388 81.474)">Fleet</text><text lengthAdjust="spacingAndGlyphs" style="font-size:9.6px;fill:#93a1a1;font-family:&quot;Arial&quot;" text-anchor="end" textLength="18.37" transform="rotate(-45 698.573 37.572)">foot</text><text lengthAdjust="spacingAndGlyphs" style="font-size:9.6px;fill:#93a1a1;font-family:&quot;Arial&quot;" text-anchor="end" textLength="35.13" transform="rotate(-45 716.763 -6.343)">Ghostty</text><text lengthAdjust="spacingAndGlyphs" style="font-size:9.6px;fill:#93a1a1;font-family:&quot;Arial&quot;" text-anchor="end" textLength="52.32" transform="rotate(-45 734.948 -50.245)">IntelliJ IDEA</text><text lengthAdjust="spacingAndGlyphs" style="font-size:9.6px;fill:#93a1a1;font-family:&quot;Arial&quot;" text-anchor="end" textLength="35.96" transform="rotate(-45 753.133 -94.148)">Konsole</text><text lengthAdjust="spacingAndGlyphs" style="font-size:9.6px;fill:#93a1a1;font-family:&quot;Arial&quot;" text-anchor="end" textLength="21.88" transform="rotate(-45 771.323 -138.062)">linux</text><text lengthAdjust="spacingAndGlyphs" style="font-size:9.6px;fill:#93a1a1;font-family:&quot;Arial&quot;" text-anchor="end" textLength="57.18" transform="rotate(-45 789.508 -181.965)">QMLKonsole</text><text lengthAdjust="spacingAndGlyphs" style="font-size:9.6px;fill:#93a1a1;font-family:&quot;Arial&quot;" text-anchor="end" textLength="47.44" transform="rotate(-45 807.693 -225.867)">QTerminal</text><text lengthAdjust="spacingAndGlyphs" style="font-size:9.6px;fill:#93a1a1;font-family:&quot;Arial&quot;" text-anchor="end" textLength="14.25" transform="rotate(-45 825.878 -269.77)">Rio</text><text lengthAdjust="spacingAndGlyphs" style="font-size:9.6px;fill:#93a1a1;font-family:&quot;Arial&quot;" text-anchor="end" textLength="56.51" transform="rotate(-45 844.068 -313.684)">rxvt-unicode</text><text lengthAdjust="spacingAndGlyphs" style="font-size:9.6px;fill:#93a1a1;font-family:&quot;Arial&quot;" text-anchor="end" textLength="8.06" transform="rotate(-45 862.253 -357.587)">st</text><text lengthAdjust="spacingAndGlyphs" style="font-size:9.6px;fill:#93a1a1;font-family:&quot;Arial&quot;" text-anchor="end" textLength="59.7" transform="rotate(-45 880.438 -401.49)">Terminal.app</text><text lengthAdjust="spacingAndGlyphs" style="font-size:9.6px;fill:#93a1a1;font-family:&quot;Arial&quot;" text-anchor="end" textLength="56.96" transform="rotate(-45 898.628 -445.404)">Terminology</text><text lengthAdjust="spacingAndGlyphs" style="font-size:9.6px;fill:#93a1a1;font-family:&quot;Arial&quot;" text-anchor="end" textLength="26.88" transform="rotate(-45 916.813 -489.306)">xterm</text><text x="336.88" y="567.14" lengthAdjust="spacingAndGlyphs" style="font-size:12px;fill:#657b83;font-family:&quot;Arial&quot;" text-anchor="middle" textLength="29.61">Term</text><text lengthAdjust="spacingAndGlyphs" style="font-size:12px;fill:#657b83;font-family:&quot;Arial&quot;" text-anchor="middle" textLength="118.25" transform="rotate(-90 137.385 122.835)">Median duration [μs]</text><path d="M643.45 228.25h70.57v63.94h-70.57z" style="stroke-width:1.16;stroke:none;fill:#fdf6e3"/><text x="649.43" y="244.23" lengthAdjust="spacingAndGlyphs" style="font-size:12px;fill:#657b83;font-family:&quot;Arial&quot;" textLength="58.62">supported</text><path d="M649.43 251.65h17.28v17.28h-17.28z" style="stroke-width:1.16;stroke:none;fill:#eee8d5"/><path d="M650.14 252.36H666v15.86h-15.86z" style="stroke-width:1.07;stroke:none;stroke-linecap:butt;stroke-linejoin:miter;fill:#ee6a50"/><path d="M649.43 268.93h17.28v17.28h-17.28z" style="stroke-width:1.16;stroke:none;fill:#eee8d5"/><path d="M650.14 269.64H666v15.86h-15.86z" style="stroke-width:1.07;stroke:none;stroke-linecap:butt;stroke-linejoin:miter;fill:#4682b4"/><text x="672.69" y="263.72" lengthAdjust="spacingAndGlyphs" style="font-size:9.6px;fill:#93a1a1;font-family:&quot;Arial&quot;" textLength="22.85">False</text><text x="672.69" y="281" lengthAdjust="spacingAndGlyphs" style="font-size:9.6px;fill:#93a1a1;font-family:&quot;Arial&quot;" textLength="20.64">True</text><text x="42.25" y="16.26" lengthAdjust="spacingAndGlyphs" style="font-size:14.4px;fill:#657b83;font-family:&quot;Arial&quot;" textLength="320.13">Median duration per terminal for fast terminals</text></g></svg>