<svg xmlns="http://www.w3.org/2000/svg" width="960" height="768" class="svglite" viewBox="0 0 720 576"><defs><style>.svglite polyline,.svglite rect{fill:none;stroke:#000;stroke-linecap:round;stroke-linejoin:round;stroke-miterlimit:10}.svglite text{white-space:pre}</style></defs><rect width="100%" height="100%" style="stroke:none;fill:#fdf6e3"/><defs><clipPath id="cpMC4wMHw3MjAuMDB8MC4wMHw1NzYuMDA="><path d="M0 0h720v576H0z"/></clipPath></defs><g clip-path="url(#cpMC4wMHw3MjAuMDB8MC4wMHw1NzYuMDA=)"><path d="M0 0h720v576H0z" style="stroke-width:1.16;stroke:none;fill:#fdf6e3"/></g><defs><clipPath id="cpNDIuMjV8NjMxLjUwfDI1LjY5fDQ5NC43NA=="><path d="M42.25 25.69h589.24v469.05H42.25z"/></clipPath></defs><g clip-path="url(#cpNDIuMjV8NjMxLjUwfDI1LjY5fDQ5NC43NA==)"><path d="M42.25 25.69h589.24v469.05H42.25z" style="stroke-width:1.16;stroke:none;fill:#eee8d5"/><path d="M42.25 421.04H631.5M42.25 316.29H631.5M42.25 211.54H631.5M42.25 106.78H631.5" style="stroke-width:.53;stroke:#fdf6e3;stroke-linecap:butt"/><path d="M42.25 473.42H631.5M42.25 368.67H631.5M42.25 263.91H631.5M42.25 159.16H631.5M42.25 54.4H631.5M65.51 494.74V25.69M104.28 494.74V25.69M143.05 494.74V25.69M181.81 494.74V25.69M220.58 494.74V25.69M259.34 494.74V25.69M298.11 494.74V25.69M336.88 494.74V25.69M375.64 494.74V25.69M414.41 494.74V25.69M453.17 494.74V25.69M491.94 494.74V25.69M530.71 494.74V25.69M569.47 494.74V25.69M608.24 494.74V25.69" style="stroke-width:1.16;stroke:#fdf6e3;stroke-linecap:butt"/><path d="M48.07 387.84h34.89v85.58H48.07z" style="stroke-width:1.07;stroke:none;stroke-linecap:butt;stroke-linejoin:miter;fill:#4682b4"/><path d="M86.83 418.95h34.89v54.47H86.83zM125.6 151.06h34.89v322.37H125.6z" style="stroke-width:1.07;stroke:none;stroke-linecap:butt;stroke-linejoin:miter;fill:#ee6a50"/><path d="M164.37 420.06h34.89v53.36h-34.89zM203.13 144.57h34.89v328.85h-34.89zM241.9 401.67h34.89v71.76H241.9z" style="stroke-width:1.07;stroke:none;stroke-linecap:butt;stroke-linejoin:miter;fill:#4682b4"/><path d="M280.66 439.52h34.89v33.9h-34.89zM319.43 379.75h34.89v93.67h-34.89zM358.2 419.33h34.89v54.1H358.2z" style="stroke-width:1.07;stroke:none;stroke-linecap:butt;stroke-linejoin:miter;fill:#ee6a50"/><path d="M396.96 365.55h34.89v107.88h-34.89zM435.73 418.24h34.89v55.18h-34.89zM474.49 418.87h34.89v54.56h-34.89zM513.26 47.01h34.89v426.41h-34.89zM552.03 394.06h34.89v79.36h-34.89zM590.79 392.2h34.89v81.23h-34.89z" style="stroke-width:1.07;stroke:none;stroke-linecap:butt;stroke-linejoin:miter;fill:#4682b4"/></g><g clip-path="url(#cpMC4wMHw3MjAuMDB8MC4wMHw1NzYuMDA=)"><path d="M42.25 494.74V25.69" style="stroke-width:1.16;stroke:none;stroke-linecap:butt"/><text x="36.87" y="476.85" lengthAdjust="spacingAndGlyphs" style="font-size:9.6px;fill:#93a1a1;font-family:&quot;Arial&quot;" text-anchor="end" textLength="5.49">0</text><text x="36.87" y="372.09" lengthAdjust="spacingAndGlyphs" style="font-size:9.6px;fill:#93a1a1;font-family:&quot;Arial&quot;" text-anchor="end" textLength="10.97">50</text><text x="36.87" y="267.34" lengthAdjust="spacingAndGlyphs" style="font-size:9.6px;fill:#93a1a1;font-family:&quot;Arial&quot;" text-anchor="end" textLength="16.46">100</text><text x="36.87" y="162.59" lengthAdjust="spacingAndGlyphs" style="font-size:9.6px;fill:#93a1a1;font-family:&quot;Arial&quot;" text-anchor="end" textLength="16.46">150</text><text x="36.87" y="57.83" lengthAdjust="spacingAndGlyphs" style="font-size:9.6px;fill:#93a1a1;font-family:&quot;Arial&quot;" text-anchor="end" textLength="16.46">200</text><path d="M39.26 473.42h2.99M39.26 368.67h2.99M39.26 263.91h2.99M39.26 159.16h2.99M39.26 54.4h2.99" style="stroke-width:1.16;stroke:#93a1a1;stroke-linecap:butt"/><path d="M42.25 494.74H631.5" style="stroke-width:1.16;stroke:none;stroke-linecap:butt"/><path d="M65.51 497.73v-2.99M104.28 497.73v-2.99M143.05 497.73v-2.99M181.81 497.73v-2.99M220.58 497.73v-2.99M259.34 497.73v-2.99M298.11 497.73v-2.99M336.88 497.73v-2.99M375.64 497.73v-2.99M414.41 497.73v-2.99M453.17 497.73v-2.99M491.94 497.73v-2.99M530.71 497.73v-2.99M569.47 497.73v-2.99M608.24 497.73v-2.99" style="stroke-width:1.16;stroke:#93a1a1;stroke-linecap:butt"/><text lengthAdjust="spacingAndGlyphs" style="font-size:9.6px;fill:#93a1a1;font-family:&quot;Arial&quot;" text-anchor="end" textLength="36.86" transform="rotate(-45 644.733 167.553)">Alacritty</text><text lengthAdjust="spacingAndGlyphs" style="font-size:9.6px;fill:#93a1a1;font-family:&quot;Arial&quot;" text-anchor="end" textLength="69.28" transform="rotate(-45 664.118 120.753)">cool-retro-term</text><text lengthAdjust="spacingAndGlyphs" style="font-size:9.6px;fill:#93a1a1;font-family:&quot;Arial&quot;" text-anchor="end" textLength="21.75" transform="rotate(-45 683.498 73.966)">Fleet</text><text lengthAdjust="spacingAndGlyphs" style="font-size:9.6px;fill:#93a1a1;font-family:&quot;Arial&quot;" text-anchor="end" textLength="18.37" transform="rotate(-45 702.883 27.166)">foot</text><text lengthAdjust="spacingAndGlyphs" style="font-size:9.6px;fill:#93a1a1;font-family:&quot;Arial&quot;" text-anchor="end" textLength="52.32" transform="rotate(-45 722.263 -19.621)">IntelliJ IDEA</text><text lengthAdjust="spacingAndGlyphs" style="font-size:9.6px;fill:#93a1a1;font-family:&quot;Arial&quot;" text-anchor="end" textLength="35.96" transform="rotate(-45 741.648 -66.42)">Konsole</text><text lengthAdjust="spacingAndGlyphs" style="font-size:9.6px;fill:#93a1a1;font-family:&quot;Arial&quot;" text-anchor="end" textLength="21.88" transform="rotate(-45 761.033 -113.22)">linux</text><text lengthAdjust="spacingAndGlyphs" style="font-size:9.6px;fill:#93a1a1;font-family:&quot;Arial&quot;" text-anchor="end" textLength="57.18" transform="rotate(-45 780.413 -160.008)">QMLKonsole</text><text lengthAdjust="spacingAndGlyphs" style="font-size:9.6px;fill:#93a1a1;font-family:&quot;Arial&quot;" text-anchor="end" textLength="47.44" transform="rotate(-45 799.798 -206.807)">QTerminal</text><text lengthAdjust="spacingAndGlyphs" style="font-size:9.6px;fill:#93a1a1;font-family:&quot;Arial&quot;" text-anchor="end" textLength="14.25" transform="rotate(-45 819.178 -253.595)">Rio</text><text lengthAdjust="spacingAndGlyphs" style="font-size:9.6px;fill:#93a1a1;font-family:&quot;Arial&quot;" text-anchor="end" textLength="56.51" transform="rotate(-45 838.563 -300.394)">rxvt-unicode</text><text lengthAdjust="spacingAndGlyphs" style="font-size:9.6px;fill:#93a1a1;font-family:&quot;Arial&quot;" text-anchor="end" textLength="8.06" transform="rotate(-45 857.948 -347.194)">st</text><text lengthAdjust="spacingAndGlyphs" style="font-size:9.6px;fill:#93a1a1;font-family:&quot;Arial&quot;" text-anchor="end" textLength="59.7" transform="rotate(-45 877.328 -393.981)">Terminal.app</text><text lengthAdjust="spacingAndGlyphs" style="font-size:9.6px;fill:#93a1a1;font-family:&quot;Arial&quot;" text-anchor="end" textLength="56.96" transform="rotate(-45 896.713 -440.78)">Terminology</text><text lengthAdjust="spacingAndGlyphs" style="font-size:9.6px;fill:#93a1a1;font-family:&quot;Arial&quot;" text-anchor="end" textLength="26.88" transform="rotate(-45 916.093 -487.568)">xterm</text><text x="336.88" y="567.14" lengthAdjust="spacingAndGlyphs" style="font-size:12px;fill:#657b83;font-family:&quot;Arial&quot;" text-anchor="middle" textLength="29.61">Term</text><text lengthAdjust="spacingAndGlyphs" style="font-size:12px;fill:#657b83;font-family:&quot;Arial&quot;" text-anchor="middle" textLength="118.25" transform="rotate(-90 137.385 122.835)">Median duration [μs]</text><path d="M643.45 228.25h70.57v63.94h-70.57z" style="stroke-width:1.16;stroke:none;fill:#fdf6e3"/><text x="649.43" y="244.23" lengthAdjust="spacingAndGlyphs" style="font-size:12px;fill:#657b83;font-family:&quot;Arial&quot;" textLength="58.62">supported</text><path d="M649.43 251.65h17.28v17.28h-17.28z" style="stroke-width:1.16;stroke:none;fill:#eee8d5"/><path d="M650.14 252.36H666v15.86h-15.86z" style="stroke-width:1.07;stroke:none;stroke-linecap:butt;stroke-linejoin:miter;fill:#ee6a50"/><path d="M649.43 268.93h17.28v17.28h-17.28z" style="stroke-width:1.16;stroke:none;fill:#eee8d5"/><path d="M650.14 269.64H666v15.86h-15.86z" style="stroke-width:1.07;stroke:none;stroke-linecap:butt;stroke-linejoin:miter;fill:#4682b4"/><text x="672.69" y="263.72" lengthAdjust="spacingAndGlyphs" style="font-size:9.6px;fill:#93a1a1;font-family:&quot;Arial&quot;" textLength="22.85">False</text><text x="672.69" y="281" lengthAdjust="spacingAndGlyphs" style="font-size:9.6px;fill:#93a1a1;font-family:&quot;Arial&quot;" textLength="20.64">True</text><text x="42.25" y="16.26" lengthAdjust="spacingAndGlyphs" style="font-size:14.4px;fill:#657b83;font-family:&quot;Arial&quot;" textLength="320.13">Median duration per terminal for fast terminals</text></g></svg>